<svg xmlns="http://www.w3.org/2000/svg" version="1.1" xmlns:xlink="http://www.w3.org/1999/xlink" xmlns:svgjs="http://svgjs.dev/svgjs" width="128" height="128" viewBox="0 0 128 128"><g transform="matrix(0.8046875,0,0,0.8046875,12.24254885509287,32.39710888550064)"><svg viewBox="0 0 96 59" data-background-color="#ffffff" preserveAspectRatio="xMidYMid meet" height="78" width="128" xmlns="http://www.w3.org/2000/svg" xmlns:xlink="http://www.w3.org/1999/xlink"><g id="tight-bounds" transform="matrix(1,0,0,1,0.2586553449429516,0.2995885703761161)"><svg viewBox="0 0 95.48100000000001 58.40077600991773" height="58.40077600991773" width="95.48100000000001"><g><svg viewBox="0 0 95.48100000000001 58.40077600991773" height="58.40077600991773" width="95.48100000000001"><g><svg viewBox="0 0 95.48100000000001 58.40077600991773" height="58.40077600991773" width="95.48100000000001"><g id="textblocktransform"><svg viewBox="0 0 95.48100000000001 58.40077600991773" height="58.40077600991773" width="95.48100000000001" id="textblock"><g><svg viewBox="0 0 95.48100000000001 58.40077600991773" height="58.40077600991773" width="95.48100000000001"><g><svg viewBox="0 0 95.48100000000001 58.40077600991773" height="58.40077600991773" width="95.48100000000001"><g><svg xmlns="http://www.w3.org/2000/svg" xmlns:xlink="http://www.w3.org/1999/xlink" version="1.1" x="0" y="0" viewBox="4.279535225487863 20.001939352797486 91.72134682294073 56.101191138912874" enable-background="new 0 0 100 100" xml:space="preserve" height="58.40077600991773" width="95.48100000000001" class="icon-icon-0" data-fill-palette-color="accent" id="icon-0"><g fill="#0081a7" data-fill-palette-color="accent"><path d="M68.633 55.761A3.614 3.614 0 0 0 65.059 59.846 3.62 3.62 0 0 0 69.113 62.946 3.615 3.615 0 0 0 72.213 58.892 3.62 3.62 0 0 0 68.633 55.761" fill="#0081a7" data-fill-palette-color="accent"></path><path d="M73.58 34.083C71.971 33.02 69.847 32.458 67.434 32.458 66.725 32.458 65.996 32.507 65.268 32.604 62.86 32.925 60.524 34.091 58.858 35.801 57.169 37.537 56.348 39.656 56.61 41.614 56.802 43.059 57.89 43.993 59.381 43.993 59.541 43.993 59.704 43.981 59.867 43.96 61.859 43.694 62.289 42.322 62.703 40.996 63.176 39.484 63.622 38.057 66.196 37.713 66.46 37.678 66.717 37.66 66.961 37.66 68.814 37.66 69.964 38.638 70.201 40.414 70.433 42.152 69.059 43.538 67.604 45.005 65.971 46.652 64.12 48.518 64.473 51.165A3.2 3.2 0 0 0 65.319 52.956 2.67 2.67 0 0 0 67.291 53.786C67.432 53.786 67.578 53.777 67.723 53.757 69.807 53.479 70.091 52.27 70.365 51.099 70.469 50.657 70.577 50.199 70.785 49.787 71.074 49.211 71.797 48.535 72.636 47.753 74.638 45.882 77.379 43.32 76.872 39.525 76.555 37.148 75.446 35.317 73.58 34.083" fill="#0081a7" data-fill-palette-color="accent"></path><path d="M95.961 65.606L90.378 23.766A4.354 4.354 0 0 0 85.501 20.039L43.662 25.622A4.346 4.346 0 0 0 39.934 30.499L40.253 32.893 12.812 28.928A3.4 3.4 0 0 0 12.328 28.893 3.385 3.385 0 0 0 8.997 31.779L4.315 64.188A3.35 3.35 0 0 0 4.951 66.686 3.34 3.34 0 0 0 7.167 68.002L39.575 72.684A3.38 3.38 0 0 0 43.389 69.832L44.321 63.379 45.516 72.336A4.353 4.353 0 0 0 50.393 76.066L92.233 70.481A4.3 4.3 0 0 0 95.106 68.816 4.3 4.3 0 0 0 95.961 65.606M40.623 69.434A0.573 0.573 0 0 1 39.976 69.917L7.567 65.235A0.574 0.574 0 0 1 7.083 64.587L11.765 32.178A0.574 0.574 0 0 1 12.412 31.694L40.638 35.771 42.966 53.215zM92.244 66.627A0.73 0.73 0 0 1 91.756 66.91L49.917 72.494A0.74 0.74 0 0 1 49.089 71.861L43.506 30.022A0.74 0.74 0 0 1 44.139 29.194L85.977 23.61A0.74 0.74 0 0 1 86.807 24.244L92.392 66.084A0.74 0.74 0 0 1 92.244 66.627" fill="#0081a7" data-fill-palette-color="accent"></path><path d="M33.159 41.087C31.875 39.911 29.973 39.09 27.805 38.777A8.4 8.4 0 0 0 26.597 38.69C24.894 38.69 23.22 39.19 21.88 40.098 20.503 41.032 19.634 42.301 19.437 43.67 19.343 44.321 19.498 44.901 19.887 45.349 20.237 45.751 20.764 46.022 21.372 46.11 21.525 46.132 21.672 46.144 21.812 46.144 23.039 46.144 23.587 45.307 24.117 44.498 24.708 43.592 25.268 42.736 26.757 42.736 26.963 42.736 27.186 42.753 27.417 42.786 29.181 43.04 30.062 44.084 29.835 45.65 29.642 46.995 28.322 47.74 26.927 48.527 25.36 49.411 23.583 50.413 23.287 52.464A2.48 2.48 0 0 0 23.607 54.097C23.842 54.479 24.302 54.96 25.164 55.085 25.344 55.11 25.515 55.124 25.673 55.124H25.674C26.886 55.124 27.299 54.379 27.697 53.659 27.868 53.35 28.044 53.031 28.287 52.768 28.624 52.399 29.308 52.047 30.099 51.64 31.989 50.668 34.578 49.334 35.002 46.396 35.303 44.305 34.667 42.469 33.159 41.087" fill="#0081a7" data-fill-palette-color="accent"></path><path d="M25.057 56.696A3 3 0 0 0 24.66 56.666 2.82 2.82 0 0 0 21.886 59.066 2.804 2.804 0 0 0 24.654 62.264 2.815 2.815 0 0 0 27.428 59.866 2.805 2.805 0 0 0 25.057 56.696" fill="#0081a7" data-fill-palette-color="accent"></path></g></svg></g></svg></g></svg></g></svg></g></svg></g></svg></g><defs></defs></svg><rect width="95.48100000000001" height="58.40077600991773" fill="none" stroke="none" visibility="hidden"></rect></g></svg></g></svg>